<svg width="30" height="34" viewBox="0 0 30 34" fill="none" xmlns="http://www.w3.org/2000/svg">
<path fill-rule="evenodd" clip-rule="evenodd" d="M3.48226 9.63435L2.83036 23.2102L9.19847 27.3534L9.05132 30.4178L0.0862602 24.6056L0.0799904 24.6053L0.885837 7.8234L13.0723 1.71186L13.0326 1.68655L15.7535 0.28381L18.9133 2.36984L18.9085 2.46944L18.6583 7.68158L21.8151 9.73159L21.8511 9.73332L21.85 9.75666L25.0282 11.8202L24.8807 14.8908L21.7026 12.8273L21.1343 24.6616L18.381 26.2157L19.1049 11.1395L15.9145 9.07075L15.9082 9.07045L16.1642 3.74002L15.6298 3.38366L3.48226 9.63435ZM29.338 9.09604L29.3443 9.09634L28.5342 25.9669L14.2943 33.2902L14.294 33.2964L10.4979 30.8507L11.2301 15.6018L9.07239 19.9674L7.40734 15.5774L7.01163 23.8181L4.40616 22.1955L4.96599 10.537C6.01823 10.0213 7.17474 9.55895 7.99962 9.19766L9.51266 14.2995L11.6282 7.34401L14.3836 5.81344L13.2481 29.4587L14.44 30.2242L25.9283 24.3193L26.5926 10.4851L20.2245 6.34195L20.3718 3.27598L29.338 9.09604Z" fill="white"/>
</svg>
